<svg width="25" height="25" viewBox="0 0 25 25" fill="none" xmlns="http://www.w3.org/2000/svg">
<path d="M18.1037 8.57364C18.1037 6.98234 17.4716 5.45622 16.3463 4.331C15.2211 3.20578 13.695 2.57364 12.1037 2.57364C10.5124 2.57364 8.98628 3.20578 7.86106 4.331C6.73584 5.45622 6.1037 6.98234 6.1037 8.57364C6.1037 15.5736 3.1037 17.5736 3.1037 17.5736H21.1037C21.1037 17.5736 18.1037 15.5736 18.1037 8.57364Z" fill="#9CA3AF"/>
<path d="M13.8337 21.5736C13.6579 21.8767 13.4056 22.1283 13.1019 22.3032C12.7983 22.478 12.4541 22.5701 12.1037 22.5701C11.7533 22.5701 11.4091 22.478 11.1055 22.3032C10.8019 22.1283 10.5495 21.8767 10.3737 21.5736" stroke="#9CA3AF" stroke-width="2" stroke-linecap="round" stroke-linejoin="round"/>
</svg>
